<?xml version="1.0"?>
<svg xmlns="http://www.w3.org/2000/svg" width="201" height="81" viewBox="0 0 201 81" fill="none" style="background-color:transparent;">
  <rect width="201" height="81" fill="none"/>
  <path d="M29.1 8H9V23.2H29.1C31.6 23.2 33.6 25.2 33.6 27.7C33.6 30.2 31.6 32.2 29.1 32.2H9V47.4H29.1C39.9 47.4 48.8 38.6 48.8 27.7C48.8 16.8 39.9 8 29.1 8Z" fill="#F7D60C"/>
  <path d="M20.2 68.2H24V62.5H17.1L20.2 68.2Z" fill="#F7D60C"/>
  <path d="M24 75.2V69.5H20.9L24 75.2Z" fill="#F7D60C"/>
  <path d="M16.5 61.3H24V55.5H13.4L16.5 61.3Z" fill="#F7D60C"/>
  <path d="M12.7 54.3H24V48.6H9.69995L12.7 54.3Z" fill="#F7D60C"/>
  <path d="M60.1 43.3V16.8H69.9C71.1 16.8 72.2 17 73.3 17.5C74.4 17.9 75.3 18.6 76.2 19.3C77 20 77.6 20.9 78.1 22C78.6 23.1 78.8 24.2 78.8 25.5C78.8 26.8 78.6 27.9 78.1 29C77.6 30.1 77 31.1 76.2 31.9C75.4 32.7 74.4 33.4 73.3 33.9C72.2 34.4 71 34.6 69.8 34.6H65.6V43.4H60.1V43.3ZM65.7 29H69.9C70.8 29 71.6 28.6 72.3 27.9C73 27.2 73.3 26.4 73.3 25.4C73.3 24.5 73 23.7 72.3 23.1C71.7 22.5 70.9 22.2 69.9 22.2H65.7V29Z" fill="#F7D60C"/>
  <path d="M95.3 43.3C94.9 42.6 94.6 41.9 94.2 41.1C93.8 40.3 93.4 39.5 93 38.8C92.6 38 92.2 37.3 91.8 36.5C91.4 35.8 91.1 35.1 90.8 34.6H88V43.3H82.3V16.8H92.2C94.7 16.8 96.8 17.6 98.5 19.3C99.4 20.2 100 21.1 100.4 22.2C100.8 23.2 101 24.4 101 25.6C101 27.3 100.6 28.9 99.8 30.3C99 31.7 97.9 32.8 96.4 33.6C96.8 34.4 97.3 35.3 97.8 36.3C98.3 37.3 98.8 38.2 99.3 39.2C99.8 40.1 100.2 41 100.6 41.7C101 42.5 101.3 43 101.5 43.3H95.3ZM87.9 22.3V29H92.1C93 29 93.8 28.7 94.5 28C95.2 27.3 95.5 26.5 95.5 25.6C95.5 24.7 95.2 23.9 94.5 23.3C93.9 22.7 93.1 22.4 92.1 22.4H87.9V22.3Z" fill="#F7D60C"/>
  <path d="M117.4 43.5C115.5 43.5 113.7 43.1 112 42.4C110.3 41.7 108.9 40.7 107.6 39.4C106.4 38.2 105.4 36.7 104.7 35C104 33.3 103.6 31.5 103.6 29.7C103.6 27.8 104 26 104.7 24.4C105.4 22.7 106.4 21.3 107.6 20C108.8 18.8 110.3 17.8 112 17.1C113.7 16.4 115.5 16 117.4 16C119.3 16 121.1 16.4 122.7 17.1C124.3 17.8 125.8 18.8 127.1 20C128.3 21.2 129.3 22.7 130 24.4C130.7 26.1 131.1 27.8 131.1 29.7C131.1 31.6 130.7 33.4 130 35C129.3 36.7 128.3 38.1 127.1 39.4C125.9 40.6 124.4 41.6 122.7 42.4C121 43.2 119.3 43.5 117.4 43.5ZM117.4 37.9C118.5 37.9 119.6 37.7 120.6 37.3C121.6 36.9 122.5 36.3 123.2 35.5C123.9 34.8 124.5 33.9 124.9 32.9C125.3 31.9 125.5 30.8 125.5 29.7C125.5 28.6 125.3 27.5 124.9 26.5C124.5 25.5 123.9 24.6 123.2 23.9C122.5 23.2 121.6 22.6 120.6 22.2C119.6 21.8 118.6 21.6 117.4 21.6C116.3 21.6 115.2 21.8 114.2 22.2C113.2 22.6 112.3 23.2 111.6 23.9C110.9 24.6 110.3 25.5 109.9 26.5C109.5 27.5 109.3 28.5 109.3 29.7C109.3 30.8 109.5 31.9 109.9 32.9C110.3 33.9 110.9 34.8 111.6 35.5C112.3 36.3 113.2 36.8 114.2 37.3C115.2 37.7 116.3 37.9 117.4 37.9Z" fill="#F7D60C"/>
  <path d="M157.7 43.3C157.6 42.8 157.5 42.1 157.4 41.3C157.3 40.5 157.1 39.5 156.9 38.5C156.7 37.5 156.5 36.4 156.3 35.3C156.1 34.2 155.9 33.1 155.7 31.9C155.1 32.9 154.4 34 153.6 35.4C152.8 36.8 152 38 151.3 39.3C150.4 40.8 149.6 42.3 148.7 43.8C147.8 42.3 146.9 40.8 146.1 39.3C145.7 38.7 145.3 38.1 145 37.4C144.6 36.7 144.2 36.1 143.9 35.4C143.5 34.7 143.1 34.1 142.8 33.5C142.4 32.9 142.1 32.4 141.8 31.9C141.6 33 141.4 34.1 141.2 35.3C141 36.4 140.8 37.5 140.6 38.5C140.4 39.5 140.2 40.5 140.1 41.3C140 42.1 139.8 42.8 139.7 43.3H134L139 16.1C140.4 18.5 141.7 20.8 143 22.9C143.5 23.8 144.1 24.8 144.7 25.7C145.3 26.6 145.8 27.6 146.3 28.4C146.8 29.3 147.3 30.1 147.8 30.8C148.2 31.6 148.6 32.2 148.9 32.7C150.1 30.6 151.6 28.2 153.3 25.3C155 22.4 156.8 19.3 158.8 16.1L163.5 43.3H157.7Z" fill="#F7D60C"/>
  <path d="M179.7 43.5C177.8 43.5 176 43.1 174.3 42.4C172.6 41.7 171.2 40.7 169.9 39.4C168.7 38.2 167.7 36.7 167 35C166.3 33.3 165.9 31.5 165.9 29.7C165.9 27.8 166.3 26 167 24.4C167.7 22.7 168.7 21.3 169.9 20C171.1 18.8 172.6 17.8 174.3 17.1C176 16.4 177.8 16 179.7 16C181.6 16 183.4 16.4 185 17.1C186.6 17.8 188.1 18.8 189.4 20C190.6 21.2 191.6 22.7 192.3 24.4C193 26.1 193.4 27.8 193.4 29.7C193.4 31.6 193 33.4 192.3 35C191.6 36.7 190.6 38.1 189.4 39.4C188.2 40.6 186.7 41.6 185 42.4C183.3 43.2 181.6 43.5 179.7 43.5ZM179.7 37.9C180.8 37.9 181.9 37.7 182.9 37.3C183.9 36.9 184.8 36.3 185.5 35.5C186.2 34.8 186.8 33.9 187.2 32.9C187.6 31.9 187.8 30.8 187.8 29.7C187.8 28.6 187.6 27.5 187.2 26.5C186.8 25.5 186.2 24.6 185.5 23.9C184.8 23.2 183.9 22.6 182.9 22.2C181.9 21.8 180.9 21.6 179.7 21.6C178.6 21.6 177.5 21.8 176.5 22.2C175.5 22.6 174.6 23.2 173.9 23.9C173.2 24.6 172.6 25.5 172.2 26.5C171.8 27.5 171.6 28.5 171.6 29.7C171.6 30.8 171.8 31.9 172.2 32.9C172.6 33.9 173.2 34.8 173.9 35.5C174.6 36.3 175.5 36.8 176.5 37.3C177.5 37.7 178.6 37.9 179.7 37.9Z" fill="#F7D60C"/>
  <path d="M63 67V61L58.4 52.9H61.8C62 53.2 62.2 53.6 62.4 54C62.6 54.4 62.9 54.8 63.1 55.2C63.3 55.6 63.6 56 63.8 56.4C64 56.8 64.2 57.2 64.5 57.5C64.7 57.1 64.9 56.8 65.2 56.4C65.4 56 65.7 55.6 65.9 55.2C66.1 54.8 66.4 54.4 66.6 54C66.8 53.6 67 53.2 67.2 52.9H70.6L65.9 61V67H63Z" fill="#F7D60C"/>
  <path d="M79.1001 67.1C78.1001 67.1 77.1001 66.9 76.2001 66.5C75.3001 66.1 74.5001 65.6 73.9001 64.9C73.2001 64.2 72.7001 63.5 72.3001 62.6C71.9001 61.7 71.7001 60.8 71.7001 59.8C71.7001 58.8 71.9001 57.9 72.3001 57C72.7001 56.1 73.2001 55.3 73.9001 54.7C74.6001 54 75.3001 53.5 76.2001 53.1C77.1001 52.7 78.0001 52.5 79.1001 52.5C80.1001 52.5 81.0001 52.7 81.9001 53.1C82.8001 53.5 83.6001 54 84.2001 54.7C84.9001 55.4 85.4001 56.1 85.8001 57C86.2001 57.9 86.4001 58.8 86.4001 59.8C86.4001 60.8 86.2001 61.8 85.8001 62.6C85.4001 63.5 84.9001 64.3 84.2001 64.9C83.5001 65.6 82.8001 66.1 81.9001 66.5C81.1001 67 80.1001 67.1 79.1001 67.1ZM79.1001 64.2C79.7001 64.2 80.3001 64.1 80.8001 63.9C81.3001 63.7 81.8001 63.4 82.2001 63C82.6001 62.6 82.9001 62.1 83.1001 61.6C83.3001 61.1 83.4001 60.5 83.4001 59.9C83.4001 59.3 83.3001 58.7 83.1001 58.2C82.9001 57.7 82.6001 57.2 82.2001 56.8C81.8001 56.4 81.3001 56.1 80.8001 55.9C80.3001 55.7 79.7001 55.6 79.1001 55.6C78.5001 55.6 77.9001 55.7 77.4001 55.9C76.9001 56.1 76.4001 56.4 76.0001 56.8C75.6001 57.2 75.3001 57.6 75.1001 58.2C74.9001 58.8 74.8001 59.3 74.8001 59.9C74.8001 60.5 74.9001 61.1 75.1001 61.6C75.3001 62.1 75.6001 62.6 76.0001 63C76.4001 63.4 76.9001 63.7 77.4001 63.9C77.9001 64.1 78.5001 64.2 79.1001 64.2Z" fill="#F7D60C"/>
  <path d="M98.2 52.9H101.2V61.5C101.2 62.3 101.1 63 100.8 63.7C100.5 64.4 100.1 65 99.6 65.5C99.1 66 98.5 66.4 97.8 66.7C97.1 67 96.4 67.1 95.6 67.1C94.8 67.1 94.1 67 93.4 66.7C92.7 66.4 92.1 66 91.6 65.5C91.1 65 90.7 64.4 90.4 63.7C90.1 63 90 62.3 90 61.5V52.9H93V61.5C93 61.9 93.1 62.2 93.2 62.5C93.3 62.8 93.5 63.1 93.8 63.4C94 63.6 94.3 63.8 94.7 64C95 64.1 95.4 64.2 95.7 64.2C96.1 64.2 96.4 64.1 96.7 64C97 63.9 97.3 63.7 97.5 63.4C97.7 63.2 97.9 62.9 98.1 62.5C98.2 62.2 98.3 61.8 98.3 61.5V52.9H98.2Z" fill="#F7D60C"/>
  <path d="M112 67C111.8 66.6 111.6 66.3 111.4 65.8C111.2 65.4 111 65 110.7 64.6C110.5 64.2 110.3 63.8 110.1 63.4C109.9 63 109.7 62.7 109.6 62.4H108.1V67H105.1V52.9H110.4C111.7 52.9 112.8 53.3 113.8 54.2C114.3 54.7 114.6 55.2 114.8 55.7C115 56.3 115.1 56.9 115.1 57.5C115.1 58.4 114.9 59.3 114.4 60C114 60.7 113.4 61.3 112.6 61.7C112.8 62.1 113.1 62.6 113.4 63.2C113.7 63.7 114 64.2 114.2 64.7C114.5 65.2 114.7 65.6 114.9 66.1C115.1 66.5 115.3 66.8 115.4 67H112ZM108.1 55.9V59.5H110.3C110.8 59.5 111.2 59.3 111.6 59C111.9 58.6 112.1 58.2 112.1 57.7C112.1 57.2 111.9 56.8 111.6 56.5C111.3 56.2 110.8 56 110.3 56H108.1V55.9Z" fill="#F7D60C"/>
  <path d="M118.9 67V52.9H123.5C124.8 52.9 125.9 53.2 126.6 53.9C127.4 54.6 127.8 55.5 127.8 56.7C127.8 57.1 127.7 57.5 127.6 57.9C127.5 58.3 127.3 58.6 127.1 59C127.2 59.1 127.2 59.1 127.3 59.1C127.4 59.1 127.4 59.2 127.5 59.2C128 59.7 128.3 60.1 128.6 60.6C128.8 61.1 129 61.7 129 62.3C129 63.6 128.5 64.6 127.6 65.5C127.2 65.9 126.6 66.3 126.1 66.5C125.5 66.7 124.9 66.9 124.3 66.9H118.9V67ZM123.5 57.9C123.8 57.9 124.1 57.8 124.4 57.7C124.7 57.6 124.8 57.3 124.8 56.8C124.8 56.7 124.8 56.6 124.8 56.5C124.8 56.4 124.7 56.3 124.7 56.2C124.7 56.1 124.5 56 124.3 56C124.1 55.9 123.9 55.9 123.5 55.9H121.8V57.9H123.5ZM124.1 64.1C124.6 64.1 125 63.9 125.4 63.6C125.8 63.3 125.9 62.9 125.9 62.4C125.9 61.9 125.7 61.5 125.4 61.3C125 61 124.6 60.9 124.1 60.9H121.9V64.1H124.1Z" fill="#F7D60C"/>
  <path d="M132.6 67V52.9H135.6V67H132.6Z" fill="#F7D60C"/>
  <path d="M139.5 67L146.4 55.9H140.3V52.9H151.7C150.7 54.5 149.8 56 148.9 57.4C148.5 58 148.1 58.6 147.8 59.3C147.4 59.9 147 60.5 146.7 61.1C146.3 61.7 146 62.2 145.7 62.7C145.4 63.2 145.1 63.6 144.9 64H150.9V67H139.5Z" fill="#F7D60C"/>
  <path d="M156.9 67C156.5 67 156.2 66.9 155.9 66.6C155.6 66.3 155.5 66 155.5 65.6C155.5 65.2 155.6 64.9 155.9 64.6C156.2 64.3 156.5 64.2 156.9 64.2C157.3 64.2 157.6 64.3 157.8 64.6C158.1 64.9 158.2 65.2 158.2 65.6C158.2 66 158.1 66.3 157.8 66.6C157.6 66.9 157.3 67 156.9 67Z" fill="#F7D60C"/>
  <path d="M176.1 64.1C175.4 65.1 174.5 65.8 173.5 66.4C172.4 66.9 171.3 67.2 170.2 67.2C169.2 67.2 168.3 67 167.4 66.6C166.5 66.2 165.7 65.7 165.1 65C164.4 64.3 163.9 63.6 163.5 62.7C163.1 61.8 162.9 60.9 162.9 59.9C162.9 58.9 163.1 58 163.5 57.1C163.9 56.2 164.4 55.4 165.1 54.8C165.8 54.1 166.5 53.6 167.4 53.2C168.3 52.8 169.2 52.6 170.2 52.6C170.9 52.6 171.6 52.7 172.3 52.9C173 53.1 173.6 53.4 174.2 53.8L172.6 56.3C171.9 55.9 171.1 55.6 170.3 55.6C169.7 55.6 169.1 55.7 168.6 55.9C168.1 56.1 167.6 56.4 167.2 56.8C166.8 57.2 166.5 57.6 166.3 58.2C166.1 58.7 166 59.3 166 59.9C166 60.5 166.1 61.1 166.3 61.6C166.5 62.1 166.8 62.6 167.2 63C167.6 63.4 168 63.7 168.6 63.9C169.1 64.1 169.7 64.2 170.3 64.2C171 64.2 171.7 64 172.3 63.7C172.9 63.4 173.4 62.9 173.9 62.3L176.1 64.1Z" fill="#F7D60C"/>
  <path d="M187.7 67C187.6 66.8 187.5 66.6 187.4 66.4C187.3 66.2 187.2 65.9 187.1 65.7H181.7C181.6 65.9 181.5 66.2 181.4 66.4C181.3 66.6 181.2 66.8 181.1 67H178L184.5 52.4L191 67H187.7ZM184.5 59.8L183.1 62.8H185.8L184.5 59.8Z" fill="#F7D60C"/>
</svg>
