<svg id="Layer_1" data-name="Layer 1" xmlns="http://www.w3.org/2000/svg" viewBox="0 0 211.61 87.61"><defs><style>.cls-1{fill:#f7d60c;}</style></defs><title>Promoyourbizlogo</title><path class="cls-1" d="M34.1,11.07H14V26.23H34.1a4.51,4.51,0,1,1,0,9H14V50.41H34.1a19.67,19.67,0,0,0,0-39.34Z"/><polygon class="cls-1" points="25.24 71.31 28.98 71.31 28.98 65.57 22.17 65.57 25.24 71.31"/><polygon class="cls-1" points="28.98 78.28 28.98 72.54 25.9 72.54 28.98 78.28"/><polygon class="cls-1" points="21.51 64.34 28.98 64.34 28.98 58.61 18.43 58.61 21.51 64.34"/><polygon class="cls-1" points="17.77 57.38 28.98 57.38 28.98 51.64 14.69 51.64 17.77 57.38"/><path class="cls-1" d="M65.13,38.41V11.84h9.76a8.77,8.77,0,0,1,3.4.67,9.34,9.34,0,0,1,2.88,1.82,8.46,8.46,0,0,1,2,2.75,8.1,8.1,0,0,1,.75,3.47,8.69,8.69,0,0,1-.72,3.52A9.64,9.64,0,0,1,81.24,27a9.09,9.09,0,0,1-2.87,2,8.64,8.64,0,0,1-3.48.72H70.68v8.76Zm5.55-14.32h4.21A3.11,3.11,0,0,0,77.26,23a3.51,3.51,0,0,0,1-2.49,3,3,0,0,0-1-2.27,3.41,3.41,0,0,0-2.4-.89H70.68Z"/><path class="cls-1" d="M100.32,38.36c-.35-.67-.74-1.39-1.15-2.18l-1.25-2.34c-.41-.78-.81-1.54-1.19-2.28l-1-1.91H93v8.71H87.3V11.84h9.86a8.88,8.88,0,0,1,6.32,2.49,8.61,8.61,0,0,1,1.94,2.89,9.5,9.5,0,0,1-.6,8.12,8.74,8.74,0,0,1-3.35,3.26c.41.83.88,1.74,1.41,2.72l1.53,2.88c.5.92.94,1.77,1.34,2.53s.7,1.31.89,1.63ZM93,17.39v6.7h4.21a3.2,3.2,0,0,0,2.37-1,3.39,3.39,0,0,0,1-2.44,3.13,3.13,0,0,0-1-2.33,3.29,3.29,0,0,0-2.39-.93Z"/><path class="cls-1" d="M122.44,38.55a13.23,13.23,0,0,1-5.39-1.1,14.14,14.14,0,0,1-4.38-3,13.83,13.83,0,0,1-2.94-4.38,13.34,13.34,0,0,1-1.08-5.34,13.2,13.2,0,0,1,1.08-5.31,13.72,13.72,0,0,1,7.32-7.3,13.55,13.55,0,0,1,5.39-1.08,13.2,13.2,0,0,1,5.31,1.08,13.83,13.83,0,0,1,7.31,7.3,13.36,13.36,0,0,1,1.07,5.31,13.51,13.51,0,0,1-1.07,5.34,13.69,13.69,0,0,1-2.95,4.38,14,14,0,0,1-4.36,3A12.89,12.89,0,0,1,122.44,38.55Zm0-5.55a7.84,7.84,0,0,0,3.16-.65,8.17,8.17,0,0,0,2.59-1.77A8.61,8.61,0,0,0,129.93,28a8.05,8.05,0,0,0,.65-3.19,7.87,7.87,0,0,0-.65-3.16A8.38,8.38,0,0,0,128.19,19a8.28,8.28,0,0,0-2.59-1.75,7.84,7.84,0,0,0-3.16-.65A8.26,8.26,0,0,0,116.6,19a8.24,8.24,0,0,0-1.75,2.58,7.87,7.87,0,0,0-.65,3.16,8.05,8.05,0,0,0,.65,3.19,8.46,8.46,0,0,0,1.75,2.63,7.93,7.93,0,0,0,2.61,1.77A8.1,8.1,0,0,0,122.44,33Z"/><path class="cls-1" d="M162.76,38.36c-.07-.51-.17-1.19-.32-2s-.3-1.78-.47-2.8-.36-2.09-.56-3.21L160.84,27c-.57,1-1.26,2.11-2.06,3.47s-1.56,2.64-2.3,3.85q-1.29,2.2-2.63,4.46c-.93-1.5-1.8-3-2.63-4.46-.39-.6-.77-1.23-1.15-1.89s-.77-1.31-1.15-2-.75-1.28-1.1-1.87l-1-1.6c-.19,1.11-.38,2.23-.58,3.35s-.38,2.19-.57,3.21-.36,1.95-.5,2.8l-.36,2H139.2L144,11.17q2.06,3.59,4,6.8c.54.92,1.09,1.86,1.65,2.8l1.63,2.73c.53.87,1,1.69,1.46,2.44s.83,1.38,1.15,1.89q1.82-3.12,4.4-7.42t5.46-9.24l4.7,27.19Z"/><path class="cls-1" d="M184.73,38.55a13.15,13.15,0,0,1-5.38-1.1,13.91,13.91,0,0,1-4.38-3A13.69,13.69,0,0,1,172,30.1a13.34,13.34,0,0,1-1.08-5.34A13.2,13.2,0,0,1,172,19.45a13.78,13.78,0,0,1,7.33-7.3,13.47,13.47,0,0,1,5.38-1.08,13.21,13.21,0,0,1,5.32,1.08,13.86,13.86,0,0,1,7.3,7.3,13.2,13.2,0,0,1,1.08,5.31,13.34,13.34,0,0,1-1.08,5.34,13.69,13.69,0,0,1-2.95,4.38,14,14,0,0,1-4.35,3A12.9,12.9,0,0,1,184.73,38.55Zm0-5.55a7.84,7.84,0,0,0,3.16-.65,8.17,8.17,0,0,0,2.59-1.77A8.64,8.64,0,0,0,192.23,28a8,8,0,0,0,.64-3.19,7.87,7.87,0,0,0-.64-3.16A8.41,8.41,0,0,0,190.48,19a8.28,8.28,0,0,0-2.59-1.75,7.84,7.84,0,0,0-3.16-.65,8.14,8.14,0,0,0-3.23.65A8.26,8.26,0,0,0,178.89,19a8.59,8.59,0,0,0-1.75,2.58,7.87,7.87,0,0,0-.64,3.16,8,8,0,0,0,.64,3.19,8.83,8.83,0,0,0,1.75,2.63A8.17,8.17,0,0,0,184.73,33Z"/><path class="cls-1" d="M68,62.11v-6L63.41,48h3.41c.19.34.4.71.63,1.1s.46.79.69,1.21.46.83.69,1.23.44.79.65,1.15l.65-1.15c.23-.4.46-.82.68-1.23s.46-.82.69-1.21.44-.76.63-1.1h3.36L71,56.1v6Z"/><path class="cls-1" d="M84.14,62.22a7.09,7.09,0,0,1-2.87-.59,7.56,7.56,0,0,1-2.33-1.58,7.2,7.2,0,0,1-1.57-2.33,7.05,7.05,0,0,1-.58-2.85A7,7,0,0,1,77.37,52a7.31,7.31,0,0,1,3.9-3.88,7.08,7.08,0,0,1,2.87-.58,7,7,0,0,1,2.83.58A7.27,7.27,0,0,1,90.85,52a7,7,0,0,1,.58,2.83,7.05,7.05,0,0,1-.58,2.85,7.33,7.33,0,0,1-1.56,2.33A7.76,7.76,0,0,1,87,61.63,7,7,0,0,1,84.14,62.22Zm0-3a4.35,4.35,0,0,0,1.68-.34,4.42,4.42,0,0,0,1.38-1,4.63,4.63,0,0,0,.93-1.4,4.27,4.27,0,0,0,.34-1.7,4.17,4.17,0,0,0-.34-1.68,4.35,4.35,0,0,0-2.31-2.31,4.17,4.17,0,0,0-1.68-.34,4.26,4.26,0,0,0-1.72.34,4.35,4.35,0,0,0-1.39.93,4.39,4.39,0,0,0-1.28,3.06,4.43,4.43,0,0,0,2.67,4.05A4.43,4.43,0,0,0,84.14,59.26Z"/><path class="cls-1" d="M103.18,48h3v8.57a5.79,5.79,0,0,1-.43,2.2,5.57,5.57,0,0,1-1.2,1.8,5.83,5.83,0,0,1-1.79,1.21,5.36,5.36,0,0,1-2.19.45,5.49,5.49,0,0,1-2.21-.45,5.83,5.83,0,0,1-1.79-1.21,5.59,5.59,0,0,1-1.21-1.8,5.45,5.45,0,0,1-.45-2.2V48h3v8.57a2.58,2.58,0,0,0,.21,1,2.86,2.86,0,0,0,.59.86,2.91,2.91,0,0,0,.85.58,2.5,2.5,0,0,0,1,.22,2.43,2.43,0,0,0,1-.22,2.67,2.67,0,0,0,.85-.58,3,3,0,0,0,.56-.86,2.75,2.75,0,0,0,.2-1Z"/><path class="cls-1" d="M117.05,62.11c-.19-.35-.39-.74-.61-1.16l-.66-1.24c-.22-.42-.44-.82-.64-1.22s-.38-.73-.54-1h-1.47v4.64h-3V48h5.25a4.68,4.68,0,0,1,3.36,1.33,4.51,4.51,0,0,1,1,1.54,5.06,5.06,0,0,1-.32,4.32,4.51,4.51,0,0,1-1.79,1.73c.22.45.48.93.76,1.46l.81,1.53.72,1.35c.21.41.37.7.47.86ZM113.13,51v3.57h2.24a1.69,1.69,0,0,0,1.26-.54,1.79,1.79,0,0,0,.52-1.3,1.68,1.68,0,0,0-.51-1.24,1.74,1.74,0,0,0-1.27-.49Z"/><path class="cls-1" d="M123.88,62.11V48h4.64a4.54,4.54,0,0,1,3.13,1,3.63,3.63,0,0,1,1.16,2.85,3.86,3.86,0,0,1-.18,1.17,4.91,4.91,0,0,1-.49,1.07l.16.13a.79.79,0,0,1,.15.12,5.69,5.69,0,0,1,1.06,1.43,3.74,3.74,0,0,1,.37,1.71,4.31,4.31,0,0,1-1.43,3.24,4.66,4.66,0,0,1-1.53,1,4.73,4.73,0,0,1-1.83.35ZM128.52,53a1.93,1.93,0,0,0,.9-.22.9.9,0,0,0,.43-.9,1.69,1.69,0,0,0,0-.3.52.52,0,0,0-.14-.3.72.72,0,0,0-.39-.23,2.61,2.61,0,0,0-.77-.09h-1.68v2Zm.57,6.17a2,2,0,0,0,1.3-.46,1.53,1.53,0,0,0,.53-1.2,1.3,1.3,0,0,0-.53-1.12,2.15,2.15,0,0,0-1.3-.38h-2.25v3.16Z"/><path class="cls-1" d="M137.58,62.11V48h2.95V62.11Z"/><path class="cls-1" d="M144.51,62.11,151.44,51h-6.11V48h11.42L154,52.53l-1.15,1.86-1.13,1.82-1,1.65-.81,1.3h6v3Z"/><path class="cls-1" d="M162,62.11a1.33,1.33,0,0,1-1-.39,1.38,1.38,0,0,1,1-2.36,1.24,1.24,0,0,1,.93.4,1.43,1.43,0,0,1,0,2A1.27,1.27,0,0,1,162,62.11Z"/><path class="cls-1" d="M181.1,59.16a7.41,7.41,0,0,1-6,3.06,6.93,6.93,0,0,1-2.83-.59A7.63,7.63,0,0,1,170,60.05a7.36,7.36,0,0,1-1.57-2.33,7.22,7.22,0,0,1-.57-2.85,7.12,7.12,0,0,1,.57-2.83A7.55,7.55,0,0,1,170,49.72a7.4,7.4,0,0,1,2.32-1.56,6.92,6.92,0,0,1,2.83-.58,7.68,7.68,0,0,1,2.05.27,6.61,6.61,0,0,1,1.88.85l-1.58,2.5a4.25,4.25,0,0,0-2.35-.66,4.1,4.1,0,0,0-1.68.34,4.42,4.42,0,0,0-1.38.93,4.53,4.53,0,0,0-.93,1.38,4.17,4.17,0,0,0-.34,1.68,4.27,4.27,0,0,0,.34,1.7,4.63,4.63,0,0,0,.93,1.4,4.23,4.23,0,0,0,3.06,1.29,4.5,4.5,0,0,0,2-.47,4.11,4.11,0,0,0,1.56-1.37Z"/><path class="cls-1" d="M192.75,62.11q-.13-.3-.27-.63l-.29-.69h-5.36l-.29.69q-.14.33-.27.63H183l6.52-14.58L196,62.11Zm-3.22-7.29-1.37,3h2.7Z"/><path class="cls-1" d="M72.86,73.78a3.26,3.26,0,0,1-.27,1.33,3.44,3.44,0,0,1-1.83,1.82,3.36,3.36,0,0,1-1.33.27,3.26,3.26,0,0,1-1.33-.27,3.38,3.38,0,0,1-1.82-1.82A3.26,3.26,0,0,1,66,73.78a3.36,3.36,0,0,1,.27-1.33,3.44,3.44,0,0,1,1.82-1.83,3.26,3.26,0,0,1,1.33-.27,3.4,3.4,0,0,1,1.91.58l-.36.55A2.7,2.7,0,0,0,69.43,71a2.74,2.74,0,0,0-2,.82,2.71,2.71,0,0,0-.59.89,2.6,2.6,0,0,0-.22,1.07,2.56,2.56,0,0,0,.22,1.07,2.74,2.74,0,0,0,1.47,1.47,2.56,2.56,0,0,0,1.07.22,2.67,2.67,0,0,0,1-.19,2.56,2.56,0,0,0,.84-.51,3,3,0,0,0,.6-.77,2.76,2.76,0,0,0,.31-1H69.52v-.66h3.34Z"/><path class="cls-1" d="M79.32,77.15c-.09-.19-.2-.4-.33-.64l-.37-.72-.35-.69c-.11-.22-.2-.4-.28-.54H76.54v2.59h-.65V70.44h2.3a2.12,2.12,0,0,1,1.9,1.26,2.15,2.15,0,0,1,.15.8,2,2,0,0,1-.11.69,2.13,2.13,0,0,1-.33.59,2.4,2.4,0,0,1-.5.45,2,2,0,0,1-.63.28c.1.18.21.4.34.63l.39.73c.14.25.26.48.38.71s.21.41.3.57ZM76.54,71.1v2.8h1.65a1.49,1.49,0,0,0,.55-.1,1.57,1.57,0,0,0,.45-.31,1.67,1.67,0,0,0,.31-.44,1.29,1.29,0,0,0,.11-.55,1.47,1.47,0,0,0-.1-.56,1.4,1.4,0,0,0-.76-.73,1.3,1.3,0,0,0-.56-.11Z"/><path class="cls-1" d="M87.19,77.15,87,76.74q-.07-.24-.18-.51h-3c-.08.18-.14.35-.2.51l-.17.41h-.67l2.54-6.88,2.56,6.88Zm-.58-1.58c-.12-.32-.25-.65-.37-1s-.25-.66-.36-1-.23-.59-.32-.85-.18-.47-.23-.63q-.1.24-.24.63c-.09.26-.2.54-.31.85s-.23.63-.36,1-.24.66-.35,1Z"/><path class="cls-1" d="M90.75,77.15V70.44h2.3a2.17,2.17,0,0,1,.81.16,2.1,2.1,0,0,1,.65.43,2,2,0,0,1,.44.65,2.11,2.11,0,0,1,.15.8,1.89,1.89,0,0,1-.16.79,2.18,2.18,0,0,1-.44.66,2.26,2.26,0,0,1-.65.44,2,2,0,0,1-.8.16H91.4v2.62Zm.65-3.25h1.65a1.32,1.32,0,0,0,.55-.11,1.51,1.51,0,0,0,.76-.76,1.32,1.32,0,0,0,.11-.55,1.42,1.42,0,0,0-.1-.55,1.35,1.35,0,0,0-.31-.43,1.34,1.34,0,0,0-.45-.29,1.3,1.3,0,0,0-.56-.11H91.4Z"/><path class="cls-1" d="M102.34,77.15V74.1H98.88v3.05h-.65V70.44h.65v3h3.46v-3H103v6.71Z"/><path class="cls-1" d="M106.24,77.15V70.44h.65v6.71Z"/><path class="cls-1" d="M116.22,75.77a3.45,3.45,0,0,1-1.23,1,3.38,3.38,0,0,1-1.55.38,3.34,3.34,0,0,1-1.34-.27A3.49,3.49,0,0,1,111,76.2a3.42,3.42,0,0,1-.73-1.09,3.26,3.26,0,0,1-.27-1.33,3.36,3.36,0,0,1,.27-1.33,3.42,3.42,0,0,1,.73-1.09,3.52,3.52,0,0,1,1.08-.74,3.34,3.34,0,0,1,1.34-.27,3,3,0,0,1,1,.14,3.34,3.34,0,0,1,.86.39l-.34.56a2.59,2.59,0,0,0-1.47-.44,2.74,2.74,0,0,0-2,.82,2.91,2.91,0,0,0-.6.89,2.76,2.76,0,0,0-.21,1.07,2.72,2.72,0,0,0,.21,1.07,2.86,2.86,0,0,0,.6.88,2.67,2.67,0,0,0,.88.59,2.56,2.56,0,0,0,1.07.22,2.92,2.92,0,0,0,1.27-.29,2.67,2.67,0,0,0,1-.85Z"/><path class="cls-1" d="M119.56,75.55a1.31,1.31,0,0,0,.53.73,1.47,1.47,0,0,0,.85.26,1.56,1.56,0,0,0,.57-.11,1.4,1.4,0,0,0,.47-.32,1.36,1.36,0,0,0,.32-.46,1.3,1.3,0,0,0,.11-.56,1.09,1.09,0,0,0-.08-.43,1.36,1.36,0,0,0-.25-.39,1.71,1.71,0,0,0-.43-.29,1.88,1.88,0,0,0-.62-.15,2.47,2.47,0,0,1-.83-.19,2.1,2.1,0,0,1-.58-.39,1.6,1.6,0,0,1-.34-.53,1.75,1.75,0,0,1-.11-.58,1.78,1.78,0,0,1,.14-.7,1.73,1.73,0,0,1,.38-.57,1.79,1.79,0,0,1,.56-.38,1.64,1.64,0,0,1,.69-.14,1.66,1.66,0,0,1,.73.16,2,2,0,0,1,.6.44l-.48.44a1.12,1.12,0,0,0-.85-.39,1,1,0,0,0-.43.09,1.21,1.21,0,0,0-.35.24,1.18,1.18,0,0,0-.24.37.94.94,0,0,0-.09.44.91.91,0,0,0,.33.72,1.61,1.61,0,0,0,.92.32,2.2,2.2,0,0,1,.89.22,1.9,1.9,0,0,1,.61.45,1.72,1.72,0,0,1,.37.6,1.85,1.85,0,0,1,.12.64,2.08,2.08,0,0,1-.17.82A2.07,2.07,0,0,1,121.77,77a2.09,2.09,0,0,1-.83.17,2.13,2.13,0,0,1-1.24-.4,2,2,0,0,1-.77-1Z"/><path class="cls-1" d="M131.51,74.44v-.66h3.88v.66Z"/><path class="cls-1" d="M147.3,74l-1.37,3.29-2.35-6.85h.68c.05.17.13.39.22.66s.2.56.31.87l.34,1,.34,1,.3.87c.1.27.17.49.23.66.09-.24.23-.56.41-1s.36-.87.56-1.35l-1.14-2.71h.7q.14.32.33.81c.14.32.28.68.44,1.06.17-.38.33-.74.46-1.06l.34-.81h.7l-1.13,2.71c.19.48.38.93.55,1.35l.42,1c.05-.17.13-.39.22-.66l.3-.87q.15-.48.33-1c.13-.34.24-.67.34-1l.3-.87c.09-.27.17-.49.22-.66h.71l-2.35,6.85Z"/><path class="cls-1" d="M153.81,77.12V70.44h3.39v.66h-2.73v2.25h1.72V74h-1.72v2.47h2.73v.65Z"/><path class="cls-1" d="M160.32,77.15V70.47h2a2.12,2.12,0,0,1,1.34.38,1.36,1.36,0,0,1,.48,1.12,1.72,1.72,0,0,1-.15.74,1.68,1.68,0,0,1-.43.56,2.7,2.7,0,0,1,.53.37,2.19,2.19,0,0,1,.45.67,2.09,2.09,0,0,1,.16.78,2.15,2.15,0,0,1-.16.8,2,2,0,0,1-.45.65,1.89,1.89,0,0,1-.67.45,2.21,2.21,0,0,1-.81.16Zm2-4.09a1.51,1.51,0,0,0,.41-.06,1.18,1.18,0,0,0,.37-.19,1.29,1.29,0,0,0,.28-.33,1.13,1.13,0,0,0,.1-.51,2.27,2.27,0,0,0,0-.24.69.69,0,0,0-.13-.29.89.89,0,0,0-.35-.24,1.68,1.68,0,0,0-.67-.1H161v2Zm.29,3.43a1.35,1.35,0,0,0,.57-.11,1.51,1.51,0,0,0,.45-.29,1.32,1.32,0,0,0,.3-.44,1.3,1.3,0,0,0,.11-.56,1.22,1.22,0,0,0-.11-.54,1.23,1.23,0,0,0-.3-.44,1.47,1.47,0,0,0-1-.4H161v2.78Z"/><path class="cls-1" d="M168.13,75.55a1.36,1.36,0,0,0,.53.73,1.47,1.47,0,0,0,.85.26,1.47,1.47,0,0,0,1.05-.43,1.49,1.49,0,0,0,.31-.46,1.3,1.3,0,0,0,.11-.56,1.09,1.09,0,0,0-.08-.43,1.36,1.36,0,0,0-.25-.39,1.71,1.71,0,0,0-.43-.29,1.88,1.88,0,0,0-.61-.15,2.48,2.48,0,0,1-.84-.19,2.1,2.1,0,0,1-.58-.39,1.6,1.6,0,0,1-.34-.53,1.75,1.75,0,0,1-.11-.58,1.78,1.78,0,0,1,.14-.7,1.73,1.73,0,0,1,.38-.57,1.79,1.79,0,0,1,.56-.38,1.64,1.64,0,0,1,.69-.14,1.66,1.66,0,0,1,.73.16,2,2,0,0,1,.6.44l-.48.44a1.12,1.12,0,0,0-.85-.39,1,1,0,0,0-.43.09,1.21,1.21,0,0,0-.35.24,1.18,1.18,0,0,0-.24.37.94.94,0,0,0-.09.44.91.91,0,0,0,.33.72,1.61,1.61,0,0,0,.92.32,2.2,2.2,0,0,1,.89.22,1.9,1.9,0,0,1,.61.45,1.72,1.72,0,0,1,.37.6,1.85,1.85,0,0,1,.12.64,2.08,2.08,0,0,1-.17.82A2.07,2.07,0,0,1,170.34,77a2.05,2.05,0,0,1-.83.17,2.13,2.13,0,0,1-1.24-.4,2,2,0,0,1-.77-1Z"/><path class="cls-1" d="M174.76,77.15V70.44h.65v6.71Z"/><path class="cls-1" d="M180.25,77.15V71.1h-1.93v-.66h4.5v.66h-1.91v6.05Z"/><path class="cls-1" d="M185.7,77.12V70.44h3.39v.66h-2.74v2.25h1.72V74h-1.72v2.47h2.74v.65Z"/><path class="cls-1" d="M192.29,75.55a1.41,1.41,0,0,0,.53.73,1.5,1.5,0,0,0,.85.26,1.62,1.62,0,0,0,.58-.11,1.4,1.4,0,0,0,.47-.32,1.33,1.33,0,0,0,.31-.46,1.29,1.29,0,0,0,0-1,1.4,1.4,0,0,0-.26-.39,1.54,1.54,0,0,0-.43-.29,1.82,1.82,0,0,0-.61-.15,2.59,2.59,0,0,1-.84-.19,2.26,2.26,0,0,1-.58-.39,1.57,1.57,0,0,1-.33-.53,1.53,1.53,0,0,1-.11-.58,1.62,1.62,0,0,1,.14-.7,1.73,1.73,0,0,1,.38-.57,1.79,1.79,0,0,1,.56-.38,1.56,1.56,0,0,1,.68-.14,1.7,1.7,0,0,1,.74.16A2,2,0,0,1,195,71l-.48.44a1.1,1.1,0,0,0-.85-.39,1.07,1.07,0,0,0-.43.09,1.21,1.21,0,0,0-.35.24,1.18,1.18,0,0,0-.24.37,1.08,1.08,0,0,0-.09.44.89.89,0,0,0,.34.72,1.56,1.56,0,0,0,.92.32,2.15,2.15,0,0,1,.88.22,2,2,0,0,1,.62.45,1.91,1.91,0,0,1,.48,1.24,2.07,2.07,0,0,1-.16.82,2.32,2.32,0,0,1-.45.67,2.24,2.24,0,0,1-.68.45,2.14,2.14,0,0,1-.84.17,2.1,2.1,0,0,1-1.23-.4,2.05,2.05,0,0,1-.78-1Z"/></svg>